<svg xmlns="http://www.w3.org/2000/svg" version="1.0" width="100.000000pt" height="100.000000pt" viewBox="0 0 100.000000 100.000000" preserveAspectRatio="xMidYMid meet">

<g transform="translate(0.000000,100.000000) scale(0.100000,-0.100000)" fill="#ffffff" stroke="none">
<path d="M393 825 c-95 -26 -213 -99 -213 -131 0 -23 27 -16 73 19 79 60 141 81 242 82 107 0 167 -18 249 -75 63 -44 76 -48 76 -22 -1 24 -78 79 -152 109 -78 32 -199 40 -275 18z" fill="#ffffff"/>
<path d="M80 561 c0 -20 38 -81 76 -122 l24 -25 -31 -30 c-60 -56 -93 -104 -80 -117 8 -8 27 4 74 51 34 34 66 62 69 62 4 0 23 -11 43 -24 20 -14 41 -26 48 -29 8 -2 -1 -30 -26 -85 -36 -75 -40 -102 -17 -102 6 0 28 36 50 80 22 44 44 80 48 80 5 0 34 -5 65 -11 l56 -12 3 -86 c2 -68 6 -86 18 -86 12 0 16 18 18 86 l3 87 65 12 c36 7 66 11 67 9 1 -2 19 -39 39 -81 21 -43 43 -78 48 -78 24 0 19 32 -14 99 -20 39 -36 72 -36 75 0 2 23 19 51 36 l50 33 65 -64 c50 -50 66 -61 76 -51 10 10 -1 26 -50 75 l-62 62 41 50 c56 68 74 104 59 119 -9 8 -16 5 -28 -12 -94 -129 -146 -175 -242 -214 -43 -17 -76 -22 -150 -22 -87 -1 -101 2 -163 31 -75 36 -166 116 -204 180 -26 45 -53 57 -53 24z" fill="#ffffff"/>
</g>
</svg>