<svg xmlns="http://www.w3.org/2000/svg" version="1.0" width="512.000000pt" height="512.000000pt" viewBox="0 0 512.000000 512.000000" preserveAspectRatio="xMidYMid meet">

<g transform="translate(0.000000,512.000000) scale(0.100000,-0.100000)" fill="#ffffff" stroke="none">
<path d="M3970 4997 c-36 -19 -148 -82 -249 -141 l-185 -106 -648 0 -647 0 -21 -22 c-37 -40 -21 -97 34 -118 18 -6 205 -10 524 -10 l497 0 -104 -63 c-58 -34 -113 -74 -124 -88 -24 -34 -36 -93 -37 -186 l0 -73 -587 0 c-324 0 -606 -5 -628 -10 -24 -5 -51 -21 -67 -40 -26 -28 -28 -36 -28 -120 l0 -90 -150 0 -150 0 2 333 3 332 275 6 c151 3 276 6 277 7 48 44 55 85 22 121 -20 22 -21 22 -318 19 l-298 -3 -36 -28 c-21 -16 -46 -46 -57 -67 -19 -37 -20 -59 -20 -378 l0 -340 -104 -4 c-92 -3 -107 -6 -144 -31 -54 -35 -82 -90 -82 -160 0 -54 24 -102 213 -422 l35 -60 -41 -11 c-90 -23 -155 -76 -191 -154 -30 -65 -29 -208 1 -266 l22 -41 -42 -13 c-54 -16 -186 -81 -245 -122 -63 -43 -165 -141 -218 -210 -84 -108 -147 -244 -180 -388 -16 -70 -32 -458 -20 -504 16 -63 83 -87 123 -43 19 20 21 37 26 247 4 189 8 238 26 304 70 253 248 459 479 552 144 58 154 59 587 59 433 0 443 -1 587 -59 230 -93 407 -296 479 -552 22 -77 23 -93 27 -678 2 -341 7 -607 13 -617 5 -10 32 -25 61 -35 66 -22 130 -80 158 -146 54 -126 -15 -276 -147 -324 -56 -20 -2300 -20 -2356 0 -132 48 -201 198 -147 324 28 66 92 124 158 146 29 10 57 26 62 36 6 11 10 116 10 249 l0 230 -26 20 c-43 34 -86 26 -109 -20 -12 -21 -15 -69 -15 -206 l0 -178 -29 -13 c-133 -59 -231 -230 -218 -381 3 -36 14 -88 24 -114 36 -96 129 -190 230 -232 47 -19 78 -20 1208 -23 753 -2 1177 1 1207 8 77 16 139 51 198 110 31 30 66 76 78 103 l22 47 838 0 838 0 50 25 c28 14 59 40 74 62 l25 37 3 1319 2 1320 53 71 c110 147 180 289 222 451 37 144 45 230 45 493 0 227 -2 249 -21 288 -24 52 1 35 -544 349 -493 285 -478 279 -585 222z m550 -375 l445 -257 3 -220 c4 -242 -7 -353 -45 -485 -66 -228 -214 -447 -396 -583 -39 -30 -159 -105 -265 -166 l-193 -113 -162 93 c-89 51 -193 113 -232 138 -85 56 -219 183 -286 271 -67 88 -153 265 -185 380 -26 91 -27 107 -31 390 l-4 295 382 220 c210 121 410 236 443 257 34 20 66 36 71 37 6 0 210 -115 455 -257z m-1510 -589 c3 -59 21 -266 26 -290 l7 -33 -487 0 -486 0 0 40 c0 90 -71 165 -168 177 l-52 6 0 53 0 54 580 0 c319 0 580 -3 580 -7z m-1106 -259 c9 -3 16 -16 16 -29 0 -12 -61 -129 -137 -259 l-136 -236 -152 0 -152 0 -137 237 c-130 226 -151 275 -123 286 18 8 802 8 821 1z m1199 -266 c11 -29 35 -81 53 -115 l32 -62 -408 -3 c-385 -3 -409 -4 -429 -22 -26 -23 -28 -81 -4 -108 15 -17 43 -18 477 -18 l461 0 81 -85 80 -84 -537 -3 c-512 -3 -538 -4 -558 -22 -26 -23 -28 -81 -4 -108 15 -17 49 -18 665 -18 l649 0 175 -101 c188 -109 225 -121 288 -95 61 25 385 214 459 267 l67 49 0 -1223 c0 -938 -3 -1226 -12 -1235 -9 -9 -207 -12 -828 -12 l-816 0 -18 70 c-21 84 -78 173 -136 215 -98 71 -173 64 689 65 l773 0 33 33 c26 26 34 44 40 88 3 29 5 351 3 714 -3 612 -4 663 -21 688 -34 52 -62 62 -184 66 -126 4 -164 -6 -182 -45 -16 -35 -14 -48 10 -78 20 -25 24 -26 120 -26 l99 0 0 -165 0 -165 -350 0 -350 0 0 165 0 165 110 0 c99 0 111 2 130 22 25 27 26 69 1 99 l-19 24 -605 3 -606 2 -68 71 c-37 39 -96 91 -130 115 -70 50 -197 116 -260 134 l-42 13 22 41 c30 58 31 201 1 266 -36 78 -101 130 -190 154 l-41 11 81 140 c45 77 85 146 89 153 6 9 127 12 548 12 l540 0 22 -52z m-1211 -446 c31 -30 33 -37 33 -102 0 -65 -2 -72 -33 -102 l-32 -33 -365 0 -365 0 -32 33 c-31 30 -33 37 -33 101 0 60 3 73 25 96 14 15 34 31 45 36 11 4 179 7 372 6 l353 -2 32 -33z m1478 -927 l0 -165 -319 0 -320 0 -11 58 c-14 73 -47 176 -71 224 -11 21 -19 40 -19 43 0 3 167 5 370 5 l370 0 0 -165z m0 -480 l0 -165 -315 0 -315 0 0 165 0 165 315 0 315 0 0 -165z m850 0 l0 -165 -350 0 -350 0 0 165 0 165 350 0 350 0 0 -165z m-850 -480 l0 -165 -315 0 -315 0 0 165 0 165 315 0 315 0 0 -165z m850 0 l0 -165 -350 0 -350 0 0 165 0 165 350 0 350 0 0 -165z" fill="#ffffff"/>
<path d="M3730 4460 c-173 -100 -326 -193 -340 -206 -24 -23 -25 -31 -28 -151 -7 -267 40 -465 153 -638 67 -103 216 -242 335 -312 163 -95 206 -116 232 -110 26 7 220 117 294 167 124 84 260 255 320 401 56 136 66 190 71 409 5 190 4 207 -13 227 -26 31 -639 384 -678 389 -26 5 -78 -22 -346 -176z m615 -138 l270 -157 0 -160 c0 -187 -12 -244 -79 -380 -79 -160 -168 -248 -364 -364 l-103 -61 -82 47 c-216 123 -321 229 -401 405 -54 118 -69 193 -70 361 l-1 148 275 159 c151 88 277 159 280 159 3 0 127 -71 275 -157z" fill="#ffffff"/>
<path d="M4302 4053 c-16 -16 -84 -89 -150 -164 l-121 -136 -103 103 c-67 67 -112 104 -125 104 -35 0 -76 -42 -76 -78 0 -25 21 -53 129 -167 71 -76 139 -141 152 -146 12 -5 32 -5 45 0 20 8 288 299 355 385 29 37 28 71 -3 101 -32 33 -68 32 -103 -2z" fill="#ffffff"/>
<path d="M1445 2095 c-22 -21 -25 -33 -25 -102 l0 -78 -51 -18 c-62 -23 -131 -83 -159 -142 -28 -57 -29 -148 -2 -207 32 -74 82 -108 257 -178 186 -74 235 -110 235 -174 0 -53 -24 -91 -76 -122 -89 -52 -243 -27 -337 56 -74 65 -147 49 -147 -32 0 -29 8 -43 44 -76 47 -44 126 -88 191 -107 l40 -12 3 -69 c3 -97 8 -111 43 -130 26 -13 36 -13 60 -3 41 16 49 36 49 123 l0 74 33 7 c17 4 53 18 79 31 110 56 168 142 168 251 0 78 -16 118 -70 177 -53 57 -95 81 -249 141 -68 27 -138 58 -155 70 -74 50 -40 157 60 185 69 20 135 8 229 -40 77 -40 86 -42 114 -31 35 15 52 54 39 93 -14 42 -168 128 -228 128 -18 0 -20 7 -20 80 0 73 -3 83 -25 105 -13 14 -36 25 -50 25 -14 0 -37 -11 -50 -25z" fill="#ffffff"/>
</g>
</svg>