<svg xmlns="http://www.w3.org/2000/svg" version="1.0" width="128.000000pt" height="128.000000pt" viewBox="0 0 128.000000 128.000000" preserveAspectRatio="xMidYMid meet">

<g transform="translate(0.000000,128.000000) scale(0.100000,-0.100000)" fill="#ffffff" stroke="none">
<path d="M616 1094 c-3 -9 -6 -44 -6 -79 0 -76 6 -95 30 -95 24 0 30 19 30 95 0 76 -6 95 -30 95 -10 0 -21 -7 -24 -16z" fill="#ffffff"/>
<path d="M320 1013 c0 -23 69 -143 87 -150 8 -3 19 -1 25 5 16 16 -68 162 -93 162 -11 0 -19 -7 -19 -17z" fill="#ffffff"/>
<path d="M880 954 c-30 -53 -39 -79 -32 -86 19 -19 39 -1 76 65 41 72 45 97 17 97 -14 0 -32 -22 -61 -76z" fill="#ffffff"/>
<path d="M475 794 c-96 -23 -269 -115 -368 -194 -97 -80 -113 -100 -97 -129 22 -41 187 -162 295 -216 131 -65 208 -85 335 -85 127 0 204 20 335 85 108 54 273 175 295 216 16 29 0 49 -97 128 -102 82 -275 173 -373 196 -81 18 -245 18 -325 -1z m275 -55 c101 -45 160 -138 160 -249 -1 -156 -115 -270 -270 -270 -155 0 -269 114 -270 270 0 155 114 270 270 270 44 0 80 -7 110 -21z m-369 -56 c-42 -52 -61 -113 -61 -193 0 -80 19 -141 61 -192 16 -21 26 -38 22 -38 -4 0 -45 20 -91 45 -74 40 -136 83 -227 160 l-30 25 30 25 c94 79 158 125 230 162 44 23 84 43 88 43 4 0 -6 -17 -22 -37z m587 -8 c74 -40 136 -83 227 -160 l30 -25 -30 -25 c-91 -77 -153 -120 -227 -160 -46 -25 -87 -45 -91 -45 -4 0 6 17 22 37 42 52 61 113 61 193 0 80 -19 141 -61 193 -16 20 -26 37 -22 37 4 0 45 -20 91 -45z" fill="#ffffff"/>
<path d="M554 576 c-30 -30 -34 -40 -34 -86 0 -46 4 -56 34 -86 30 -30 40 -34 86 -34 46 0 56 4 86 34 30 30 34 40 34 86 0 46 -4 56 -34 86 -30 30 -40 34 -86 34 -46 0 -56 -4 -86 -34z" fill="#ffffff"/>
</g>
</svg>